<svg fill="#6F825E" height="56" viewBox="0 0 56 56" width="56" xmlns="http://www.w3.org/2000/svg"><path d="m24 0c13.254834 0 24 10.745166 24 24s-10.745166 24-24 24-24-10.745166-24-24 10.745166-24 24-24zm0 4c-11.045695 0-20 8.954305-20 20s8.954305 20 20 20 20-8.954305 20-20-8.954305-20-20-20zm.5733817 6.2857143v2.687779c3.9760045.3180804 6.8546317 2.703683 6.9818638 6.3138951h-3.3080357c-.2067522-2.0039063-1.6381138-3.1648996-3.6738281-3.4193638v6.6319754l.7633929.1908482c4.1827567.9701451 6.4729352 2.687779 6.4729352 6.0753348 0 3.8964844-3.1808035 6.1071429-7.2363281 6.3934152v2.671875h-1.797154v-2.671875c-4.0396206-.3021763-7.2363281-2.5764509-7.3476563-6.3934152h3.2921317c.2862723 1.8607701 1.4949777 3.2285157 4.0555246 3.498884v-6.9341518l-.6520648-.1590402c-4.0396205-.9383371-6.2184709-2.7513951-6.2184709-5.9799107 0-3.5625 2.8627232-5.9162947 6.8705357-6.218471v-2.687779zm0 15.4587053v6.5365514c2.719587-.2067522 3.8646763-1.4949777 3.8646763-3.1967076 0-1.6381138-.890625-2.6082589-3.8646763-3.3398438zm-1.797154-9.876395c-2.2901786.2862723-3.4988839 1.6063058-3.4988839 3.0535714s.954241 2.5128348 3.4988839 3.1489955z" transform="translate(4 4)"/></svg>