<svg enable-background="new 0 0 128 128" viewBox="0 0 128 128" xmlns="http://www.w3.org/2000/svg"><path d="m102.6 80.6 12.9 11.3c-4.5 0-11.9 0-24.3 0-11.8 0-19.6-13.7-28.1-28.2 8.5-14.6 16.3-28.3 28.1-28.3h24.9l-13.6 11.8 4.6 4.3 20.7-18.9-20.8-19-4.9 3.4 14.1 12.8c-4.4 0-11.9 0-25 0-14 0-22.6 14.1-31.2 28.8-8.7-14.8-18.7-28.8-34.6-28.8-11.4 0-17.9 0-21.5 0v5.7h21.1c14.5 0 23.5 13.7 32 28.3-8.5 14.5-17.5 28.2-32 28.2-11.1 0-17.6 0-21.1 0v5.7h21.5c15.9 0 25.9-14 34.6-28.7 8.5 14.7 17.1 28.7 31.1 28.7h25.8l-14.8 13.5 4.9 3.4 20.8-19.1-20.7-19.1z"/></svg>