<svg fill="none" height="24" viewBox="0 0 24 24" width="24" xmlns="http://www.w3.org/2000/svg"><g fill="#000"><path d="m16.25 22.5c.9665 0 1.75-.7835 1.75-1.75s-.7835-1.75-1.75-1.75-1.75.7835-1.75 1.75.7835 1.75 1.75 1.75z"/><path d="m8.25 22.5c.9665 0 1.75-.7835 1.75-1.75s-.7835-1.75-1.75-1.75-1.75.7835-1.75 1.75.7835 1.75 1.75 1.75z"/><path d="m4.84 3.94-.2 2.45c-.04.47.33.86.8.86h15.31c.42 0 .77-.32.8-.74.13-1.77-1.22-3.21-2.99-3.21h-12.29c-.1-.44-.3-.86-.61-1.21-.5-.53-1.2-.84-1.92-.84h-1.74c-.41 0-.75.34-.75.75s.34.75.75.75h1.74c.31 0 .6.13.81.35.21.23.31.53.29.84z"/><path d="m20.5101 8.75h-15.34005c-.42 0-.76.32-.8.73l-.36 4.35c-.14 1.71 1.2 3.17 2.91 3.17h11.12005c1.5 0 2.82-1.23 2.93-2.73l.33-4.67c.04-.46-.32-.85-.79-.85z"/></g></svg>