<svg fill="none" height="24" viewBox="0 0 24 24" width="24" xmlns="http://www.w3.org/2000/svg"><path d="m13.73 3.51001 1.76 3.52c.24.49001.88.96 1.42 1.05l3.19.53c2.04.34 2.52 1.81999 1.05 3.27999l-2.48 2.48c-.42.42-.65 1.23-.52 1.81l.71 3.07c.56 2.43-.73 3.37-2.88 2.1l-2.99-1.77c-.54-.32-1.43-.32-1.98 0l-2.99003 1.77c-2.14 1.27-3.44.32-2.88-2.1l.71-3.07c.13-.58-.1-1.39-.52-1.81l-2.48-2.48c-1.46-1.46-.99-2.93999 1.05-3.27999l3.19-.53c.53-.09 1.17-.55999 1.41-1.05l1.76003-3.52c.96-1.91 2.52-1.91 3.47 0z" stroke="#6F825E" stroke-linecap="round" stroke-linejoin="round" stroke-width="1.5"/></svg>