<svg fill="none" height="24" viewBox="0 0 24 24" width="24" xmlns="http://www.w3.org/2000/svg"><g fill="#6F825E"><path d="m12 13.75c-.41 0-.75-.34-.75-.75v-5.25c0-.41.34-.75.75-.75s.75.34.75.75v5.25c0 .41-.34.75-.75.75z"/><path d="m12 17.25c-.27 0-.52-.1-.71-.29-.09-.1-.16-.21-.22-.33-.05-.12-.07-.25-.07-.38 0-.26.11-.52.29-.71.37-.37 1.05-.37 1.42 0 .18.19.29.45.29.71 0 .13-.03.26-.08.38s-.12.23-.21.33c-.19.19-.44.29-.71.29z"/><path d="m12.0002 22.7501c-.67 0-1.35-.17-1.95-.52l-5.94003-3.43c-1.2-.7-1.95001-1.99-1.95001-3.38v-6.83999c0-1.39.75001-2.68 1.95001-3.38l5.94003-3.42999c1.2-.7 2.69-.7 3.9 0l5.94 3.42999c1.2.7 1.95 1.99 1.95 3.38v6.83999c0 1.39-.75 2.68-1.95 3.38l-5.94 3.43c-.6.35-1.28.52-1.95.52zm0-20c-.41 0-.83.11-1.2.32l-5.94003 3.43c-.74.43-1.20001 1.22001-1.20001 2.08001v6.83999c0 .85.46001 1.65 1.20001 2.08l5.94003 3.43c.74.43 1.66.43 2.39 0l5.94-3.43c.74-.43 1.2-1.22 1.2-2.08v-6.83999c0-.85-.46-1.65001-1.2-2.08001l-5.94-3.43c-.36-.21-.78-.32-1.19-.32z"/></g></svg>