<svg fill="none" height="24" viewBox="0 0 24 24" width="24" xmlns="http://www.w3.org/2000/svg"><g stroke="#000" stroke-linecap="round" stroke-linejoin="round" stroke-width="1.5"><path d="m17 18.4301h-4l-4.45001 2.9599c-.66.44-1.54999-.0299-1.54999-.8299v-2.13c-3 0-5-2-5-5v-6.00011c0-3 2-5 5-5h10c3 0 5 2 5 5v6.00011c0 3-2 5-5 5z" stroke-miterlimit="10"/><path d="m12.0001 11.36v-.21c0-.68.42-1.04.84-1.32999.41-.28.8199-.63999.8199-1.29999 0-.92-.7399-1.66003-1.6599-1.66003s-1.66.74003-1.66 1.66003"/><path d="m11.9955 13.75h.009"/></g></svg>